<svg xmlns="http://www.w3.org/2000/svg" width="190" height="59.869"><path d="M33.4 48.038l.337 3.115a.261.261 0 01-.409.242l-3.093-2.169a.522.522 0 00-.6 0l-3.093 2.169a.261.261 0 01-.409-.242l.337-3.115a1.044 1.044 0 01.371-.691l2.428-2.014a1.044 1.044 0 011.333 0l2.428 2.014a1.044 1.044 0 01.37.691zm-6.56-35.517l2.428 2.014a1.044 1.044 0 001.333 0l2.428-2.014a1.043 1.043 0 00.371-.691l.337-3.115a.261.261 0 00-.409-.242l-3.093 2.169a.522.522 0 01-.6 0l-3.093-2.169a.261.261 0 00-.409.242l.337 3.115a1.046 1.046 0 00.37.691zm14.48 30.946l-3.109-.53a1.044 1.044 0 00-1.154.666l-1.1 2.958a1.044 1.044 0 00.024.784l1.266 2.867a.261.261 0 00.475 0l1.595-3.425a.522.522 0 01.519-.3l3.763.332a.261.261 0 00.234-.414l-1.849-2.53a1.044 1.044 0 00-.664-.407zM18.549 16.402l3.109.53a1.043 1.043 0 001.154-.666l1.1-2.958a1.042 1.042 0 00-.024-.784l-1.266-2.867a.261.261 0 00-.475 0l-1.595 3.425a.522.522 0 01-.519.3l-3.763-.332a.261.261 0 00-.234.414l1.849 2.53a1.043 1.043 0 00.664.408zm28.013 19.56l-2.958 1.1a1.043 1.043 0 00-.666 1.154l.53 3.109a1.044 1.044 0 00.413.667l2.53 1.849a.261.261 0 00.414-.234l-.332-3.763a.522.522 0 01.3-.519l3.425-1.594a.261.261 0 000-.475l-2.866-1.266a1.045 1.045 0 00-.791-.029zM13.308 23.908l2.958-1.1a1.044 1.044 0 00.666-1.154l-.53-3.109a1.044 1.044 0 00-.413-.667l-2.529-1.849a.261.261 0 00-.414.234l.332 3.763a.522.522 0 01-.3.519l-3.425 1.594a.261.261 0 000 .475l2.867 1.266a1.044 1.044 0 00.787.028zm34.04 2.933l-2.014 2.428a1.044 1.044 0 000 1.333l2.014 2.428a1.043 1.043 0 00.691.371l3.115.337a.261.261 0 00.242-.409l-2.169-3.093a.521.521 0 010-.6l2.169-3.093a.261.261 0 00-.242-.409l-3.115.337a1.044 1.044 0 00-.69.37zm-34.826 6.188l2.014-2.428a1.043 1.043 0 000-1.333l-2.014-2.428a1.043 1.043 0 00-.691-.371l-3.115-.337a.261.261 0 00-.242.409l2.169 3.093a.522.522 0 010 .6l-2.169 3.093a.261.261 0 00.242.409l3.115-.337a1.043 1.043 0 00.691-.37zm30.946-14.48l-.53 3.109a1.043 1.043 0 00.666 1.154l2.958 1.1a1.045 1.045 0 00.784-.024l2.866-1.267a.261.261 0 000-.475l-3.425-1.594a.522.522 0 01-.3-.519l.332-3.763a.261.261 0 00-.414-.234l-2.53 1.849a1.042 1.042 0 00-.408.664zM16.402 41.321l.53-3.109a1.044 1.044 0 00-.666-1.154l-2.958-1.1a1.044 1.044 0 00-.784.024l-2.867 1.266a.261.261 0 000 .475l3.425 1.594a.522.522 0 01.3.519l-.332 3.763a.261.261 0 00.414.234l2.529-1.849a1.044 1.044 0 00.409-.663zm19.56-28.013l1.1 2.958a1.044 1.044 0 001.154.666l3.109-.53a1.043 1.043 0 00.667-.413l1.849-2.53a.261.261 0 00-.234-.414l-3.763.332a.522.522 0 01-.519-.3L37.73 9.652a.261.261 0 00-.475 0l-1.266 2.867a1.044 1.044 0 00-.028.789zM23.908 46.562l-1.1-2.958a1.043 1.043 0 00-1.154-.666l-3.109.53a1.043 1.043 0 00-.667.413l-1.849 2.53a.261.261 0 00.234.414l3.763-.332a.521.521 0 01.519.3l1.595 3.425a.261.261 0 00.475 0l1.266-2.867a1.042 1.042 0 00.026-.789zm16.256 5.467l-3.081 3.458a.53.53 0 01-.562.151l-4.4-1.455a.4.4 0 00-.522.391l.084 2.5a.8.8 0 00.509.715l5.263 2.025a.8.8 0 00.9-.242l3.546-4.385a.8.8 0 00.083-.874l-1.178-2.209a.4.4 0 00-.642-.075zM19.705 7.841l3.081-3.458a.53.53 0 01.562-.151l4.4 1.455a.4.4 0 00.522-.391l-.084-2.5a.8.8 0 00-.509-.715L22.414.056a.8.8 0 00-.9.242l-3.546 4.385a.8.8 0 00-.083.874l1.178 2.209a.4.4 0 00.642.075zM49.84 43.954l-.939 4.536a.53.53 0 01-.411.412l-4.536.939a.4.4 0 00-.257.6l1.324 2.125a.8.8 0 00.8.365l5.57-.878a.8.8 0 00.662-.662l.878-5.57a.8.8 0 00-.365-.8l-2.125-1.324a.4.4 0 00-.601.257zM10.029 15.915l.939-4.536a.53.53 0 01.412-.412l4.535-.939a.4.4 0 00.257-.6l-1.324-2.125a.8.8 0 00-.8-.365l-5.57.878a.8.8 0 00-.661.662l-.878 5.57a.8.8 0 00.365.8l2.125 1.324a.4.4 0 00.6-.257zm44.154 16.206l1.454 4.4a.53.53 0 01-.151.562l-3.458 3.081a.4.4 0 00.077.648l2.209 1.178a.8.8 0 00.874-.083l4.385-3.546a.8.8 0 00.242-.9l-2.025-5.263a.8.8 0 00-.715-.509l-2.5-.084a.4.4 0 00-.392.516zm-48.5-4.377l-1.455-4.4a.53.53 0 01.151-.562l3.459-3.081a.4.4 0 00-.077-.648l-2.209-1.178a.8.8 0 00-.874.083L.293 21.504a.8.8 0 00-.242.9l2.025 5.263a.8.8 0 00.716.509l2.5.084a.4.4 0 00.394-.514zm46.342-8.041l3.458 3.081a.53.53 0 01.151.562l-1.454 4.4a.4.4 0 00.391.522l2.5-.084a.8.8 0 00.715-.509l2.025-5.263a.8.8 0 00-.242-.9l-4.385-3.546a.8.8 0 00-.874-.083l-2.209 1.178a.4.4 0 00-.073.645zM7.837 40.161L4.378 37.08a.53.53 0 01-.151-.562l1.455-4.4a.4.4 0 00-.391-.522l-2.5.084a.8.8 0 00-.716.509L.05 37.452a.8.8 0 00.242.9l4.385 3.546a.8.8 0 00.874.083l2.209-1.178a.4.4 0 00.081-.639zm36.112-30.132l4.536.939a.53.53 0 01.411.412l.939 4.536a.4.4 0 00.6.257l2.125-1.324a.8.8 0 00.365-.8l-.878-5.57a.8.8 0 00-.662-.662l-5.57-.878a.8.8 0 00-.8.365l-1.324 2.125a.4.4 0 00.258.6zM15.91 49.84l-4.535-.939a.53.53 0 01-.412-.412l-.939-4.536a.4.4 0 00-.6-.257L7.299 45.02a.8.8 0 00-.365.8l.878 5.57a.8.8 0 00.661.662l5.57.878a.8.8 0 00.8-.365l1.324-2.125a.4.4 0 00-.252-.6zM32.118 5.686l4.4-1.455a.53.53 0 01.562.151l3.081 3.458a.4.4 0 00.648-.077l1.178-2.209a.8.8 0 00-.083-.874L38.358.295a.8.8 0 00-.9-.242l-5.263 2.025a.8.8 0 00-.509.715l-.084 2.5a.4.4 0 00.521.393zm-4.377 48.5l-4.4 1.455a.53.53 0 01-.562-.151l-3.081-3.458a.4.4 0 00-.648.077l-1.178 2.209a.8.8 0 00.083.874l3.546 4.385a.8.8 0 00.9.242l5.263-2.025a.8.8 0 00.509-.715l.084-2.5a.4.4 0 00-.508-.396zm37.413-19.565h2.4V23.027h-2.4zm3.51-6.347v1.991h5.972v-1.991zm7.246 6.347h10.86V32.81h-8.465v-9.781h-2.4zm20.156.225a8.638 8.638 0 005.139-1.407 4.4 4.4 0 000-7.339 10.058 10.058 0 00-10.288 0 4.419 4.419 0 000 7.339 8.654 8.654 0 005.149 1.406zm0-8.443a5.808 5.808 0 013.441.941 2.9 2.9 0 010 4.859 6.913 6.913 0 01-6.882 0 2.914 2.914 0 010-4.859 5.808 5.808 0 013.441-.942zm17.179 2.581l-.8 1.718h4.174v1.959a11.2 11.2 0 01-3.021.4 6.447 6.447 0 01-3.656-.9 2.83 2.83 0 01-1.359-2.442 2.763 2.763 0 011.354-2.418 6.6 6.6 0 013.678-.894 11.064 11.064 0 014.362.879l.823-1.734a17.436 17.436 0 00-5.274-.863 9.374 9.374 0 00-5.381 1.337 4.268 4.268 0 00-1.922 3.693 4.324 4.324 0 001.94 3.74 9.15 9.15 0 005.345 1.376 15.7 15.7 0 005.363-.941v-4.906zm10.03 5.637h2.306V24.91h-2.306zm11.969-9.936a8.669 8.669 0 00-4.058.766 2.393 2.393 0 00-1.412 2.2 2.264 2.264 0 00.956 1.9 5.574 5.574 0 002.771.914l3.209.334q2.029.186 2.029 1.1 0 1.221-3.021 1.221a14.658 14.658 0 01-5.4-1.081l-.823 1.734a17.271 17.271 0 006.132 1.073q5.4 0 5.4-3.024 0-2.542-3.772-2.931l-3.271-.334q-1.922-.187-1.922-1.05 0-1.135 3.057-1.135a12.871 12.871 0 014.648.879l.769-1.656a16.79 16.79 0 00-5.293-.911zm7.893 1.99h4.558v7.946h2.306v-7.946h4.532V24.91h-11.4zm14.4 7.946h2.306V24.91h-2.306zm13.291-9.936a8.685 8.685 0 00-5.149 1.384 4.25 4.25 0 00-1.922 3.631 4.355 4.355 0 002.011 3.724 8.956 8.956 0 005.256 1.423 10.867 10.867 0 004.487-.863v-1.99a8.629 8.629 0 01-4.415 1.1 6.361 6.361 0 01-3.6-.933 2.9 2.9 0 01-1.376-2.5 2.746 2.746 0 011.26-2.356 5.97 5.97 0 013.45-.894 8.981 8.981 0 013.951.879l.84-1.749a14.711 14.711 0 00-4.794-.857zm13.39 0a8.669 8.669 0 00-4.058.766 2.393 2.393 0 00-1.412 2.2 2.264 2.264 0 00.956 1.9 5.574 5.574 0 002.771.914l3.209.334q2.029.186 2.029 1.1 0 1.221-3.021 1.221a14.658 14.658 0 01-5.4-1.081l-.823 1.734a17.271 17.271 0 006.132 1.073q5.4 0 5.4-3.024 0-2.542-3.772-2.931l-3.271-.334q-1.922-.187-1.922-1.05 0-1.135 3.057-1.135a12.87 12.87 0 014.648.879l.769-1.656a16.79 16.79 0 00-5.293-.911z" fill="#034575"/></svg>