<svg xmlns="http://www.w3.org/2000/svg" width="250" height="78.775"><path d="M43.949 63.209l.443 4.1a.343.343 0 01-.539.318l-4.07-2.854a.687.687 0 00-.788 0l-4.072 2.848a.343.343 0 01-.538-.318l.443-4.1a1.374 1.374 0 01.489-.909l3.194-2.65a1.374 1.374 0 011.754 0l3.194 2.65a1.374 1.374 0 01.49.915zm-8.631-46.732l3.194 2.65a1.374 1.374 0 001.754 0l3.194-2.65a1.373 1.373 0 00.489-.909l.443-4.1a.343.343 0 00-.539-.318l-4.07 2.854a.687.687 0 01-.788 0l-4.07-2.854a.343.343 0 00-.538.318l.443 4.1a1.376 1.376 0 00.486.908zm19.053 40.718l-4.091-.7a1.373 1.373 0 00-1.519.877l-1.441 3.892a1.374 1.374 0 00.032 1.032l1.666 3.772a.343.343 0 00.625.006l2.1-4.507a.687.687 0 01.683-.394l4.952.436a.343.343 0 00.307-.545l-2.433-3.329a1.373 1.373 0 00-.883-.541zM24.406 21.581l4.091.7a1.373 1.373 0 001.519-.877l1.441-3.892a1.371 1.371 0 00-.032-1.032l-1.666-3.772a.343.343 0 00-.625-.006l-2.1 4.507a.686.686 0 01-.682.394l-4.952-.436a.343.343 0 00-.307.545l2.433 3.329a1.373 1.373 0 00.88.54zm36.859 25.74l-3.892 1.442a1.373 1.373 0 00-.876 1.519l.7 4.091a1.374 1.374 0 00.543.878l3.329 2.433a.343.343 0 00.544-.307l-.436-4.952a.687.687 0 01.394-.683l4.506-2.1a.343.343 0 00-.006-.626L62.3 47.35a1.375 1.375 0 00-1.035-.029zM17.51 31.461l3.892-1.442a1.373 1.373 0 00.877-1.519l-.7-4.091a1.373 1.373 0 00-.544-.878l-3.328-2.434a.343.343 0 00-.545.307l.436 4.952a.687.687 0 01-.394.683l-4.506 2.1a.343.343 0 00.006.626l3.772 1.666a1.374 1.374 0 001.034.027zm44.789 3.86l-2.65 3.194a1.373 1.373 0 000 1.753l2.65 3.194a1.373 1.373 0 00.909.489l4.1.443a.343.343 0 00.318-.538l-2.854-4.07a.686.686 0 010-.789l2.854-4.07a.343.343 0 00-.318-.538l-4.1.443a1.373 1.373 0 00-.909.489zm-45.823 8.142l2.65-3.194a1.373 1.373 0 000-1.753l-2.65-3.194a1.372 1.372 0 00-.909-.489l-4.1-.443a.343.343 0 00-.318.538l2.854 4.07a.688.688 0 010 .789l-2.854 4.07a.343.343 0 00.318.538l4.1-.443a1.373 1.373 0 00.909-.493zM57.194 24.41l-.7 4.091a1.373 1.373 0 00.876 1.519l3.892 1.442a1.375 1.375 0 001.032-.032l3.771-1.666a.343.343 0 00.006-.626l-4.506-2.1a.687.687 0 01-.394-.683l.436-4.952a.343.343 0 00-.544-.307l-3.329 2.434a1.372 1.372 0 00-.54.876zM21.581 54.373l.7-4.091a1.373 1.373 0 00-.877-1.519l-3.892-1.442a1.374 1.374 0 00-1.032.032l-3.772 1.666a.343.343 0 00-.006.626l4.506 2.1a.687.687 0 01.394.683l-.436 4.952a.343.343 0 00.545.307l3.328-2.433a1.374 1.374 0 00.542-.885zm25.736-36.859l1.441 3.892a1.373 1.373 0 001.519.877l4.091-.7a1.373 1.373 0 00.878-.543l2.433-3.329a.343.343 0 00-.307-.545l-4.952.436a.686.686 0 01-.683-.394l-2.1-4.507a.343.343 0 00-.625.006l-1.666 3.772a1.374 1.374 0 00-.028 1.031zm-15.86 43.755l-1.441-3.892a1.373 1.373 0 00-1.519-.877l-4.091.7a1.373 1.373 0 00-.878.543l-2.433 3.329a.343.343 0 00.307.545l4.952-.436a.686.686 0 01.682.395l2.1 4.507a.343.343 0 00.625-.006l1.666-3.772a1.371 1.371 0 00.03-1.04zm21.39 7.193l-4.054 4.55a.7.7 0 01-.74.2l-5.786-1.914a.523.523 0 00-.687.514l.111 3.292a1.046 1.046 0 00.67.941l6.925 2.664a1.047 1.047 0 001.189-.319l4.665-5.77a1.045 1.045 0 00.109-1.15l-1.55-2.907a.523.523 0 00-.85-.104zM25.928 10.321l4.054-4.55a.7.7 0 01.74-.2l5.786 1.914a.523.523 0 00.687-.514l-.11-3.292a1.046 1.046 0 00-.67-.941L29.49.074a1.047 1.047 0 00-1.189.319l-4.665 5.77a1.046 1.046 0 00-.11 1.15l1.55 2.907a.523.523 0 00.852.101zm39.651 47.517l-1.236 5.968a.7.7 0 01-.541.542l-5.968 1.235a.523.523 0 00-.338.789l1.742 2.8a1.046 1.046 0 001.051.48l7.329-1.156a1.046 1.046 0 00.871-.871l1.156-7.329a1.047 1.047 0 00-.48-1.051l-2.8-1.742a.523.523 0 00-.786.331zM13.196 20.941l1.236-5.968a.7.7 0 01.542-.542l5.968-1.235a.523.523 0 00.338-.789l-1.742-2.8a1.046 1.046 0 00-1.051-.48l-7.329 1.156a1.046 1.046 0 00-.87.871l-1.156 7.329a1.046 1.046 0 00.48 1.051l2.8 1.742a.523.523 0 00.784-.335zm58.1 21.326l1.914 5.786a.7.7 0 01-.2.74l-4.55 4.054a.523.523 0 00.1.852l2.906 1.551a1.047 1.047 0 001.15-.11l5.77-4.665a1.046 1.046 0 00.319-1.189l-2.664-6.925a1.046 1.046 0 00-.941-.67l-3.292-.11a.523.523 0 00-.515.686zM7.484 36.508L5.57 30.722a.7.7 0 01.2-.74l4.551-4.054a.523.523 0 00-.1-.852l-2.906-1.55a1.047 1.047 0 00-1.15.11l-5.77 4.665a1.047 1.047 0 00-.319 1.189l2.664 6.925a1.047 1.047 0 00.942.67l3.292.11a.523.523 0 00.508-.687zm60.977-10.58l4.55 4.054a.7.7 0 01.2.74l-1.914 5.786a.523.523 0 00.514.687l3.292-.11a1.046 1.046 0 00.941-.67l2.664-6.925a1.046 1.046 0 00-.319-1.189l-5.77-4.665a1.047 1.047 0 00-1.15-.11l-2.906 1.55a.523.523 0 00-.104.852zM10.319 52.847l-4.551-4.054a.7.7 0 01-.2-.74l1.914-5.786a.523.523 0 00-.514-.687l-3.292.11a1.047 1.047 0 00-.942.67L.07 49.285a1.047 1.047 0 00.319 1.189l5.77 4.665a1.047 1.047 0 001.15.11l2.906-1.551a.523.523 0 00.102-.851zm47.517-39.651l5.968 1.235a.7.7 0 01.541.542l1.236 5.968a.523.523 0 00.789.338l2.8-1.742a1.047 1.047 0 00.48-1.051l-1.156-7.329a1.046 1.046 0 00-.871-.871L60.294 9.13a1.046 1.046 0 00-1.051.48l-1.742 2.8a.523.523 0 00.333.786zM20.943 65.579l-5.968-1.235a.7.7 0 01-.542-.542l-1.236-5.968a.523.523 0 00-.789-.338l-2.8 1.742a1.046 1.046 0 00-.48 1.051l1.158 7.332a1.046 1.046 0 00.87.871l7.329 1.156a1.046 1.046 0 001.051-.48l1.742-2.8a.523.523 0 00-.337-.789zm21.326-58.1l5.786-1.914a.7.7 0 01.74.2l4.054 4.55a.523.523 0 00.852-.1l1.55-2.907a1.045 1.045 0 00-.109-1.15L50.477.388a1.047 1.047 0 00-1.189-.319l-6.925 2.664a1.046 1.046 0 00-.67.941l-.111 3.292a.523.523 0 00.685.516zM36.51 71.291l-5.786 1.914a.7.7 0 01-.74-.2l-4.054-4.55a.523.523 0 00-.852.1l-1.55 2.907a1.046 1.046 0 00.11 1.15l4.665 5.77a1.047 1.047 0 001.189.319l6.925-2.664a1.046 1.046 0 00.67-.941l.11-3.292a.523.523 0 00-.689-.51zM85.731 45.55h3.152V30.299h-3.154zm4.618-8.352v2.62h7.858v-2.62zm9.535 8.352h14.29v-2.383h-11.14v-12.87h-3.152zm26.521.3a11.365 11.365 0 006.762-1.852 5.784 5.784 0 000-9.657 13.234 13.234 0 00-13.537 0 5.814 5.814 0 000 9.657 11.386 11.386 0 006.773 1.851zm0-11.11a7.642 7.642 0 014.528 1.238 3.82 3.82 0 010 6.394 9.1 9.1 0 01-9.056 0 3.834 3.834 0 010-6.394 7.642 7.642 0 014.526-1.239zm22.6 3.4l-1.058 2.261h5.493v2.578a14.733 14.733 0 01-3.975.522 8.483 8.483 0 01-4.81-1.187 3.724 3.724 0 01-1.788-3.212 3.636 3.636 0 011.782-3.181 8.689 8.689 0 014.84-1.177 14.558 14.558 0 015.739 1.156l1.082-2.281a22.942 22.942 0 00-6.939-1.136 12.334 12.334 0 00-7.08 1.76 5.615 5.615 0 00-2.529 4.859 5.689 5.689 0 002.552 4.921 12.039 12.039 0 007.033 1.811 20.657 20.657 0 007.057-1.238v-6.455zm13.2 7.417h3.034V32.775h-3.034zm15.744-13.079a11.407 11.407 0 00-5.339 1.008 3.149 3.149 0 00-1.858 2.89 2.979 2.979 0 001.258 2.5 7.334 7.334 0 003.646 1.2l4.222.44q2.67.245 2.67 1.453 0 1.606-3.975 1.606a19.286 19.286 0 01-7.1-1.422l-1.082 2.281a22.725 22.725 0 008.068 1.412q7.1 0 7.1-3.979 0-3.345-4.963-3.857l-4.3-.44q-2.529-.246-2.529-1.381 0-1.493 4.022-1.493a16.936 16.936 0 016.116 1.156l1.011-2.179a22.091 22.091 0 00-6.967-1.195zm10.385 2.619h6v10.455h3.034V35.097h5.963v-2.322h-15zm18.947 10.455h3.034V32.775h-3.034zm17.489-13.074a11.427 11.427 0 00-6.774 1.821 5.592 5.592 0 00-2.529 4.777 5.73 5.73 0 002.646 4.9 11.784 11.784 0 006.915 1.872 14.3 14.3 0 005.9-1.135v-2.619a11.354 11.354 0 01-5.81 1.442 8.369 8.369 0 01-4.74-1.227 3.813 3.813 0 01-1.811-3.294 3.613 3.613 0 011.658-3.1 7.855 7.855 0 014.54-1.177 11.818 11.818 0 015.2 1.156l1.106-2.3a19.356 19.356 0 00-6.298-1.116zm17.618 0a11.406 11.406 0 00-5.339 1.008 3.149 3.149 0 00-1.858 2.89 2.979 2.979 0 001.258 2.5 7.334 7.334 0 003.646 1.2l4.222.44q2.67.245 2.67 1.453 0 1.606-3.975 1.606a19.286 19.286 0 01-7.1-1.422l-1.082 2.281a22.725 22.725 0 008.068 1.412q7.1 0 7.1-3.979 0-3.345-4.963-3.857l-4.3-.44q-2.529-.246-2.529-1.381 0-1.493 4.022-1.493a16.934 16.934 0 016.116 1.156l1.012-2.179a22.092 22.092 0 00-6.966-1.195z" fill="#fff"/></svg>