<svg version="1.0" xmlns="http://www.w3.org/2000/svg" width="933.333" height="933.333" viewBox="0 0 700 700"><path d="M254.3 1.2c-1.2.7-4.1 3.8-6.4 6.8-2.4 3-4.6 5.7-4.9 6-.3.3-3.2 3.9-6.5 8s-6.8 8.4-7.7 9.5C216.4 46.3 208 57.8 208 60c0 2.5 3 8.8 11.6 24.7 6.5 11.9 6.4 11.9 21-4.3C244.5 76 251.4 68.2 256 63c8.8-10 12.9-14 14.4-14 .5 0 13.2 4.1 28.3 9 28.4 9.3 31.1 9.8 31.4 5.2.2-2.7-.2-21.2-.6-27.4-.3-5.4-2.4-10.1-4.8-11.1C296.3 13.6 261.8.7 259.5.4c-1.6-.2-4 .1-5.2.8zm181.7 0c-1.4.6-3.4 1.4-4.5 1.9s-13 5.1-26.5 10.3c-31.9 12.2-31.6 12.1-33 14.6-1.3 2.4-1.8 8.5-2.1 24-.2 13.2-.3 12.7 2 14 1.6.8 7.7-.9 29.6-8.1 15.1-4.9 28.4-8.8 29.3-8.4 1 .3 10.4 10.2 20.8 22 16.8 19.1 19.2 21.4 21.7 21.2 3.1-.2 2.5.6 13.6-20.1 4.3-8.1 5.2-10.5 4.8-13.2-.4-2.4-4.3-7.9-13-18.7-6.8-8.3-16.5-20.4-21.6-26.7-5.1-6.3-10.2-12-11.4-12.7-2.7-1.5-6.3-1.5-9.7-.1zM148 83.6c-6.9 1.2-14.3 2.5-16.5 2.7-2.2.3-8.3 1.3-13.5 2.1-5.2.8-11.1 1.7-13 2-12.5 2-12.9 2.5-16.5 27.1-.3 2.2-.8 5.1-1 6.5-.2 1.4-.9 5.6-1.5 9.5-1.5 9.6-1.9 12.1-3 18.5-2.3 13-2.3 16.3.2 19.1 2.3 2.6 25 17.2 28.5 18.3 2.5.8 5.2-1.3 5.8-4.4.2-1.4 1.1-5.7 1.9-9.5.9-3.9 1.8-8.1 2-9.5 2.7-14.9 6.7-32.5 7.8-34.7 1.2-2.4 3.5-3 27.3-7.9 11.8-2.4 13.5-2.8 18.5-3.8 1.4-.3 4.9-1.1 7.8-1.7 8.9-1.8 8.9-3.3-.4-18.5-10.6-17.3-11-17.8-17-17.9-2.7 0-10.5.9-17.4 2.1zM530.2 82c-1.2.5-4.4 4.4-7 8.5-2.6 4.2-6.6 10.7-8.9 14.3-2.4 3.7-4.3 7.2-4.3 7.8 0 3.3 3 4.5 20 8 9.6 2 18.2 3.7 19 3.9.8.2 5.3 1.1 10 2 4.7.9 9.4 2.3 10.4 3.1 1.4 1 2.6 4.6 4.3 12.6 1.3 6.2 2.8 13.5 3.4 16.3.6 2.7 1.2 6.1 1.5 7.5 3.6 19.1 5.3 24 8.8 24 2 0 28.8-17.4 30.3-19.6 1.7-2.6 1.5-6.5-1.1-21.4-.8-4.7-1.8-10.3-2-12.5-.3-2.2-.7-4.9-1-6-.4-2.1-2-12.3-2.1-14-.4-3.6-2.8-16.5-3.6-19.1-1.3-4.3-5.2-5.9-18.4-8-6-.9-11.9-1.8-13-2-1.1-.1-3.8-.5-6-.8-2.2-.4-5.1-.8-6.5-1.1-1.4-.2-4.3-.7-6.5-1-2.2-.3-6.9-1-10.5-1.6-10.6-1.7-14.4-1.9-16.8-.9zm-158.3 29.6c-10.6 7.4-19.6 13.5-20.1 13.5-3.7.6-4.1.3-31.1-18.9-10.2-7.2-14.6-8.8-14.8-5.5-.2 2.4-.2 2 .6 8.8.4 3.3.8 8 1 10.5.7 9.5 2.5 21.1 3.4 22.9.6 1 3.4 3.8 6.3 6.2 2.9 2.4 5.5 4.6 5.8 4.9.3.3 3.9 3.3 8 6.7 4.1 3.3 8.4 7 9.6 8.1 2.8 2.7 8.3 4.2 12.1 3.4 3.3-.7 33.2-24.6 35.9-28.7.8-1.2 1.6-4.2 1.9-6.6.3-2.4.8-5.8 1-7.4.3-1.7.7-6.4 1.1-10.5.3-4.1 1-9.7 1.4-12.5.8-5.4.5-7.1-1.5-7.9-.7-.2-10 5.6-20.6 13zm-118.3 12.6c-3.4 7.3-7.7 16.7-9.6 20.8-3.6 8.2-6.9 12.1-9.8 11.5-1-.2-5.6-.6-10.3-1-4.6-.3-10-.8-11.9-1-2-.2-7.4-.7-12-1.1-4.7-.3-8.7-.8-8.9-1-.7-.7-4.1 1.7-4.1 3 0 .7 5.2 8.5 11.5 17.2 12.1 16.6 14.5 18.9 22 19.8 2.2.3 9.2 1.5 15.5 2.6 18.9 3.5 21.9 3.6 26 .8 3.1-2.1 4.2-4.3 10.7-21.3 3.9-10.5 7.2-20.6 7.2-22.6.1-3.4-.7-5.8-6.4-18.4-1.2-2.8-3.7-8.4-5.5-12.5-1.8-4.1-3.7-8.1-4.2-8.8-2.4-2.9-4.1-.8-10.2 12zm182.6-12c-.5.7-2.4 4.7-4.2 8.8-4.4 10.1-7.8 17.6-10.2 22.8-2.8 5.9-2.2 9.9 4.1 26.7 8.6 23 8.5 22.8 12.2 25.3 4.1 2.8 6.4 2.7 29.4-1.3 17.1-2.9 21.9-4.5 23.7-7.9.6-1.1 1.8-2.7 2.5-3.5.8-.7 2.2-2.6 3.1-4 .9-1.4 4.9-7 8.9-12.4s7.3-10.4 7.3-11.1c0-1.8-2.2-3.4-4.2-3.1-.9.2-5.4.6-10 1-4.6.3-9.4.8-10.8 1-3.7.5-21.2 1.8-23.4 1.7-1.1-.1-2.5-.7-3.2-1.4-.8-.7-5.5-10.3-10.7-21.3-10.6-22.9-10.4-22.5-12.1-22.5-.8 0-1.8.6-2.4 1.2zm-282.9 76c-.6.7-.9 2-.8 2.9.2.9.6 5.9 1 11 .3 5.2.8 10.1 1 10.9.5 2 1.8 18.9 1.6 21.8-.2 4.2 1.7 3.2-35.3 20.5-9.5 4.5-11.3 6.2-8.5 8.5 1.7 1.4 35 16 37.3 16.3 1.1.2 3.3 0 4.9-.5 5.9-1.5 36.1-13 38.6-14.7 5.2-3.6 5.8-9.5 2.5-25.4-.2-1.1-1.1-6.7-2.1-12.5-2.1-12.8-2.8-14.7-6.2-17.4-8.5-6.8-30.7-22.6-31.8-22.6-.7 0-1.7.6-2.2 1.2zm385.7 1.7c-3.4 2.7-10.9 8.3-22.4 16.6-5.9 4.3-8.1 7.6-9 14-.4 2.2-1.3 7.6-2.1 12-4.1 22.6-4.2 25.2-1.3 29.5 2.1 3.1 4.2 4.2 20.3 10.3 22.3 8.4 24.9 9 30.1 6.6 2.1-1 10.2-4.6 17.9-7.9 12.8-5.7 16.5-7.9 16.5-10.2 0-.8-7.6-4.6-30.3-15.2-4.2-2-8.1-3.6-8.5-3.6-.4 0-2-1-3.6-2.3-3.5-2.8-3.5-5-1.1-27.2.2-2.2.7-7.6 1.1-12 .3-4.4.7-8.2.9-8.5.1-.3-.1-1.5-.6-2.8-1.1-2.9-3.6-2.7-7.9.7zM54.9 210.3c-3.1 2.1-15.5 11.9-21.9 17.4-1.4 1.1-6.5 5.3-11.5 9.3-5 3.9-11 8.8-13.4 10.8-2.4 2-5.1 4.2-5.9 4.8-3.4 2.5-2.1 7.9 8 34.2 5.5 14.1 10.8 28 11.8 30.9 4.3 12.1 3.6 11.8 30.3 12.5 10.6.2 12 .1 13.2-1.6 1.8-2.3 2-1.5-7.9-31.4-4.7-14.1-8.6-26.3-8.6-27.1 0-1.4 2.8-4.2 14-14.1 4.1-3.6 8.1-7.2 9-8 .9-.8 5.4-4.9 10-9 10.5-9.3 11-9.9 10.7-12.9-.1-1.8-1.5-3.1-5.2-5-2.7-1.5-9.4-5-14.7-7.9-5.3-2.8-10.8-5.2-12.1-5.2-1.3 0-3.9 1-5.8 2.3zm573.6 2.2c-4.4 2.5-10.8 5.9-14.2 7.6-9.7 4.9-9.6 7.4.5 16.2 3.7 3.1 8.3 7.2 10.3 9 1.9 1.7 7.1 6.3 11.5 10.2 11.1 9.8 14.4 13.2 14.4 14.7 0 .8-4.1 13.6-9 28.6-7.1 21.6-8.8 27.7-8 29.3 1.2 2.2 1 2.2 16.5 1.9 21.7-.3 23.2-.8 26.3-9.2 1.1-2.9 6.8-17.6 12.6-32.7 5.8-15.1 10.6-28.3 10.6-29.5-.1-3.5-2.1-6.1-9.5-12-3.8-3.1-7.7-6.2-8.5-6.9-.8-.7-9.7-7.9-19.8-16.1-22.1-17.8-21.8-17.8-33.7-11.1zM99.7 307.1c-1.6 2.3-2.1 1.5 19.2 31.4 6.1 8.6 7.3 11.4 5.8 14.1-.5 1-6.7 10-13.6 19.9-6.9 9.9-12.4 18.7-12.2 19.5.4 2 2.2 3 4.6 2.5 2.6-.6 10-1.4 17.2-2 10.1-.9 20.4-2.5 22.3-3.5 1.8-1 24-27.1 27.3-32 3-4.7 3.1-9.2.1-13.6C166 337 145 312 143 311c-1-.5-3.3-1.2-5.2-1.4-5.1-.7-15.3-1.9-27.8-3.1-4.1-.4-7.8-.9-8.2-1.1-.4-.2-1.3.5-2.1 1.7zm499.2-1.7c-.2.2-3.8.7-7.9 1-4.1.4-8.8.9-10.5 1.1-1.6.2-6.1.6-10 1-14.2 1.4-12.8.4-29.6 20.5-17.7 21.3-17.6 20.8-2.6 38.8 3.9 4.8 7.4 8.9 7.7 9.2.3.3 2.6 3.1 5.3 6.2 5.3 6.3 7.6 7.3 18.2 8.3 3.9.3 8.1.8 9.5 1 3.4.4 15.9 1.8 18.8 1.9 1.3.1 2.8-.6 3.2-1.5.7-1.3-2.3-6.2-12.9-21.5-12.3-17.6-13.8-20.1-13.1-22.5.5-1.5 6.7-11.1 13.9-21.4 11-15.7 12.9-19 12.1-20.6-1.1-2-1.4-2.2-2.1-1.5zM54.8 369.6c-.2.1-5.2.3-11.3.5-12.3.3-16 1.1-18 4.3-.7 1.1-6.8 16.4-13.5 34C.4 438.5-.2 440.4.9 443.9c.9 3 3.8 5.8 16.7 16.1 8.7 6.9 16.2 13 16.8 13.5 3.6 3.3 20.5 16.4 22.3 17.4 3.5 1.8 6.1 1.3 12.6-2.3 3.4-1.8 9.8-5.2 14.2-7.6 4.4-2.4 8.3-4.8 8.8-5.4 1.9-2.9-.8-6.1-19.8-23-11-9.8-20.8-18.8-21.8-19.9-2.3-2.6-2.6-1.2 7.9-33 6.8-20.6 8.2-26.1 7.4-27.7-.6-1.1-1.4-2-1.8-2.1-2.1-.3-9.2-.6-9.4-.3zm581.5.5c-1.1.4-2.3 1.4-2.6 2.3-.4.9 3.4 13.9 8.3 28.8 5 15 9 27.9 9 28.6 0 1.5-3.3 4.8-14.4 14.7-4.4 3.8-8.9 7.9-10.2 9-1.2 1.1-5.2 4.7-9 8-13.7 12.1-13.7 12.5-1.6 19.1 19.1 10.5 21.6 11.5 25 11 2.2-.3 7.9-4.3 18.5-12.9 8.3-6.8 18.8-15.2 23.2-18.8 4.4-3.5 9.1-7.4 10.5-8.6 1.4-1.3 2.8-2.3 3.2-2.3 1.1 0 3.8-5.6 3.8-7.7 0-1.6-23-62.6-25.1-66.5-1.8-3.3-6.1-4.4-17.4-4.7-6-.1-12.9-.4-15.1-.5-2.3-.1-5.1.1-6.1.5zM139 424c-4.7 2.1-11.4 5.2-15 6.7-16.7 7.2-16.7 7.7-2.3 14.5 31.8 14.9 33.3 15.7 34.2 18 .5 1.3.7 2.5.6 2.8-.2.3-.6 4.8-1 10s-.9 10.8-1.1 12.5c-.2 1.6-.6 7-1 12-.3 4.9-.8 9.2-1 9.4-.7.7 1.8 3.1 3.2 3.1 1.7 0 32.3-22.4 34.1-25 1.2-1.7 2.9-8.8 4.7-20 .3-1.9 1-6.2 1.6-9.5 2.4-13.6 2.4-16.7-.2-20.4-2.5-3.7-2.9-3.9-25.3-12.2-18.3-6.8-20.7-6.9-31.5-1.9zm404.8-3.5c-.2.3-8.5 3.4-18.4 7-18.5 6.8-21.7 8.7-23.1 14.3-.8 3.5 5.4 40.7 7.5 44.9 1.8 3.3 32.1 26.3 34.8 26.3 1.3 0 3.7-3.3 3-4.1-.2-.2-.7-4.5-1-9.4-.4-5-.9-10.6-1.1-12.5-1.7-15.1-2-23.4-.9-25.2.6-1 16.7-8.9 32-15.7 17.8-8 18.1-7.4-12.4-20.7-11.1-4.9-18.6-6.7-20.4-4.9zm-310.3 84.9c-9.9 1.8-19.1 3.8-20.5 4.5-2.3 1.1-24.1 29.7-25.6 33.5-.8 2.1 1.2 4.6 3.4 4.1 1-.1 6.2-.6 11.7-1 5.5-.3 10.7-.8 11.5-1 .8-.2 5.3-.7 10-1 4.7-.4 8.7-.8 8.8-1 .2-.2 1.7.1 3.4.7 3.1 1.1 6 6.4 17.7 32.4 7.7 17.2 7.9 17.2 18.1-6.6 1.8-4.1 4.3-9.8 5.6-12.5 1.3-2.8 2.4-6.4 2.5-8 .2-2.8-10.2-33-13.9-40.4-2.1-4.3-6.7-7.1-11.2-7-1.9.1-11.6 1.6-21.5 3.3zm204.4-1.1c-3 2-4.1 4.3-10.6 21.7-4 10.7-7.3 20.9-7.3 22.7 0 2.9 13.8 36.1 16.2 39 2.3 2.8 4 1 9-9.5 17-36 16.6-35.4 21.3-34.6 1.8.3 6.8.7 21 1.9 2.8.3 8.4.7 12.5 1.1 12.3 1.1 14.3.5 12.3-3.8-1.8-3.9-22.3-31.1-24.5-32.7-2-1.4-38.2-8.1-43.9-8.1-1.4 0-4.1 1-6 2.3zm-328 7.1c-7.9 4.1-26.3 16.3-27.6 18.3-1.7 2.5-1.5 5.2 1.7 24.3 1 6.3 2.1 13.2 2.4 15.2.3 2.1.9 5.5 1.2 7.5.3 2.1 1.4 8.9 2.4 15.1 1.9 12.2 3.8 15.8 9.1 16.7 1.3.2 5.1.8 8.4 1.4 5.3.9 12.2 2 16.5 2.6.8.1 3.5.5 6 .9s5.2.8 6 1c.8.1 8 1.3 16 2.6 17.9 2.9 18.4 2.7 25.2-8 8.4-13.3 12.8-20.8 12.8-21.7 0-3.4-10-6.6-34.1-10.8-12.2-2.2-26.9-6-26.9-7 0-.2-.7-3-1.5-6.2s-1.7-7.4-2-9.3c-.3-1.9-1.5-7.6-2.5-12.5-1.1-5-2.1-10.1-2.4-11.5-2-11.1-3.9-17.7-5.3-18.8-2.1-1.5-2.2-1.5-5.4.2zm475.4-.4c-1.3.5-2.3 1.1-2.3 1.2 0 .2-.7 3.7-1.6 7.8-.9 4.1-1.8 8.5-2 9.7-.8 4.7-1.7 8.8-3.9 19.3-.2 1.4-1.2 6.2-2.2 10.6-.9 4.5-2.2 8.9-2.9 9.9-1.1 1.5-4.2 2.5-11.9 4.1-1.9.3-2.9.6-9.5 2-1.4.3-3.6.7-5 1-1.4.2-5.6 1.1-9.5 2-7.4 1.5-9.1 1.9-17 3.4-8.4 1.7-8.9 4.1-3 13.5 2.4 3.8 6.2 10 8.5 13.8 5.3 8.7 7.5 10.1 14.3 9.3 2.8-.3 6.3-.8 7.7-1 1.4-.3 9.8-1.7 18.8-3 22.1-3.5 21.8-3.4 29.2-4.7 9.4-1.6 12.3-2.6 13.8-5 1.4-2.2 1.6-3 2.6-9 1-6.3 3.5-22.4 3.9-25.4.3-1.7.8-4.6 1.1-6.5 1-5.8 1.5-9 3.2-20.5 1.6-10.4 1.6-11.3 0-13.7-1.3-2-28.3-20-29.7-19.7-.2 0-1.4.4-2.6.9zm-238.9 16.9c-2 .5-6.8 3.8-9.8 6.6-.6.6-6.6 5.7-13.3 11.3-6.7 5.6-12.4 11.1-12.8 12.2-1 3-1.9 10.2-3.1 22.5-.3 3.8-.9 9-1.3 11.5-.8 5.7-.4 8.7 1.4 9.4 1.1.4 23.5-14 25.5-16.4.3-.3 4-2.9 8.3-5.7 6.8-4.5 8.2-5.1 10.4-4.2 1.5.5 10.8 6.7 20.7 13.7 10 7 18.9 12.6 19.8 12.4 2.2-.4 2.5-2.4 1.7-9.2-.9-7.1-1.7-13.9-2.4-22-1.4-13.8-.4-12.5-23.8-31.9-13.2-10.9-15-11.8-21.3-10.2zm-126.2 86.3c-12.7 23.3-13.3 24.8-11.1 29.1 1 1.8 18.9 24.6 22.4 28.3.5.6 5.5 6.8 11 13.7 10.3 13 13.4 15.4 18.2 14.2 1.6-.3 16.9-6.1 34.1-12.8 24.2-9.3 31.8-12.6 33-14.5 1.6-2.4 1.9-5.2 2.2-23.7.3-13.7.4-13.2-2-14.5-1.6-.8-7.3.7-29.4 8-29 9.6-30.5 9.8-33.7 5.2-1.4-1.9-12.6-14.6-18.2-20.7-1.6-1.6-5.2-5.7-8-8.9-11.8-13.6-12.8-13.8-18.5-3.4zm250.3-6.4c-.6.4-6.4 6.8-13 14.2-6.6 7.4-13.6 15.3-15.7 17.5-2 2.2-4.6 5.3-5.8 6.8-4.4 5.6-4.8 5.5-34.8-4.3-33.5-11-32-11.2-31.6 3.2.9 26.3 1.4 28.4 7.6 30.7 1.8.7 4.2 1.7 5.3 2.2 7.3 3.1 54.8 21 57.3 21.5 1.7.3 4 0 5.5-.8 2-1 16.6-18.5 44.5-53.4 3.4-4.3 2.5-8-5.8-23.4-7.4-13.7-8.3-15-11-15-.8 0-2 .4-2.5.8z"/></svg>