<svg xmlns="http://www.w3.org/2000/svg" width="190" height="59.869" viewBox="0 0 190 59.869"><path d="M422.951,158.417l.337,3.115a.261.261,0,0,1-.409.242l-3.093-2.169a.522.522,0,0,0-.6,0l-3.093,2.169a.261.261,0,0,1-.409-.242l.337-3.115a1.044,1.044,0,0,1,.371-.691l2.428-2.014a1.044,1.044,0,0,1,1.333,0l2.428,2.014A1.044,1.044,0,0,1,422.951,158.417ZM416.391,122.9l2.428,2.014a1.044,1.044,0,0,0,1.333,0l2.428-2.014a1.043,1.043,0,0,0,.371-.691l.337-3.115a.261.261,0,0,0-.409-.242l-3.093,2.169a.522.522,0,0,1-.6,0l-3.093-2.169a.261.261,0,0,0-.409.242l.337,3.115A1.046,1.046,0,0,0,416.391,122.9Zm14.48,30.946-3.109-.53a1.044,1.044,0,0,0-1.154.666l-1.1,2.958a1.044,1.044,0,0,0,.024.784l1.266,2.867a.261.261,0,0,0,.475,0l1.595-3.425a.522.522,0,0,1,.519-.3l3.763.332a.261.261,0,0,0,.234-.414l-1.849-2.53A1.044,1.044,0,0,0,430.871,153.847ZM408.1,126.781l3.109.53a1.043,1.043,0,0,0,1.154-.666l1.1-2.958a1.042,1.042,0,0,0-.024-.784l-1.266-2.867a.261.261,0,0,0-.475,0l-1.595,3.425a.522.522,0,0,1-.519.3l-3.763-.332a.261.261,0,0,0-.234.414l1.849,2.53A1.043,1.043,0,0,0,408.1,126.781Zm28.013,19.56-2.958,1.1a1.043,1.043,0,0,0-.666,1.154l.53,3.109a1.044,1.044,0,0,0,.413.667l2.53,1.849a.261.261,0,0,0,.414-.234l-.332-3.763a.522.522,0,0,1,.3-.519l3.425-1.594a.261.261,0,0,0,0-.475l-2.866-1.266A1.045,1.045,0,0,0,436.112,146.34Zm-33.254-12.054,2.958-1.1a1.044,1.044,0,0,0,.666-1.154l-.53-3.109a1.044,1.044,0,0,0-.413-.667l-2.529-1.849a.261.261,0,0,0-.414.234l.332,3.763a.522.522,0,0,1-.3.519l-3.425,1.594a.261.261,0,0,0,0,.475l2.867,1.266A1.044,1.044,0,0,0,402.858,134.287Zm34.04,2.933-2.014,2.428a1.044,1.044,0,0,0,0,1.333l2.014,2.428a1.043,1.043,0,0,0,.691.371l3.115.337a.261.261,0,0,0,.242-.409l-2.169-3.093a.521.521,0,0,1,0-.6l2.169-3.093a.261.261,0,0,0-.242-.409l-3.115.337A1.044,1.044,0,0,0,436.9,137.22Zm-34.826,6.188,2.014-2.428a1.043,1.043,0,0,0,0-1.333l-2.014-2.428a1.043,1.043,0,0,0-.691-.371l-3.115-.337a.261.261,0,0,0-.242.409l2.169,3.093a.522.522,0,0,1,0,.6l-2.169,3.093a.261.261,0,0,0,.242.409l3.115-.337A1.043,1.043,0,0,0,402.073,143.408Zm30.946-14.48-.53,3.109a1.043,1.043,0,0,0,.666,1.154l2.958,1.1a1.045,1.045,0,0,0,.784-.024L439.763,133a.261.261,0,0,0,0-.475l-3.425-1.594a.522.522,0,0,1-.3-.519l.332-3.763a.261.261,0,0,0-.414-.234l-2.53,1.849A1.042,1.042,0,0,0,433.018,128.928ZM405.953,151.7l.53-3.109a1.044,1.044,0,0,0-.666-1.154l-2.958-1.1a1.044,1.044,0,0,0-.784.024l-2.867,1.266a.261.261,0,0,0,0,.475l3.425,1.594a.522.522,0,0,1,.3.519l-.332,3.763a.261.261,0,0,0,.414.234l2.529-1.849A1.044,1.044,0,0,0,405.953,151.7Zm19.56-28.013,1.1,2.958a1.044,1.044,0,0,0,1.154.666l3.109-.53a1.043,1.043,0,0,0,.667-.413l1.849-2.53a.261.261,0,0,0-.234-.414l-3.763.332a.522.522,0,0,1-.519-.3l-1.595-3.425a.261.261,0,0,0-.475,0l-1.266,2.867A1.044,1.044,0,0,0,425.512,123.687Zm-12.054,33.254-1.1-2.958a1.043,1.043,0,0,0-1.154-.666l-3.109.53a1.043,1.043,0,0,0-.667.413l-1.849,2.53a.261.261,0,0,0,.234.414l3.763-.332a.521.521,0,0,1,.519.3l1.595,3.425a.261.261,0,0,0,.475,0l1.266-2.867A1.042,1.042,0,0,0,413.458,156.941Zm16.256,5.467-3.081,3.458a.53.53,0,0,1-.562.151l-4.4-1.455a.4.4,0,0,0-.522.391l.084,2.5a.8.8,0,0,0,.509.715l5.263,2.025a.8.8,0,0,0,.9-.242l3.546-4.385a.8.8,0,0,0,.083-.874l-1.178-2.209A.4.4,0,0,0,429.715,162.408ZM409.256,118.22l3.081-3.458a.53.53,0,0,1,.562-.151l4.4,1.455a.4.4,0,0,0,.522-.391l-.084-2.5a.8.8,0,0,0-.509-.715l-5.263-2.025a.8.8,0,0,0-.9.242l-3.546,4.385a.8.8,0,0,0-.083.874l1.178,2.209A.4.4,0,0,0,409.256,118.22Zm30.135,36.113-.939,4.536a.53.53,0,0,1-.411.412l-4.536.939a.4.4,0,0,0-.257.6l1.324,2.125a.8.8,0,0,0,.8.365l5.57-.878a.8.8,0,0,0,.662-.662l.878-5.57a.8.8,0,0,0-.365-.8l-2.125-1.324A.4.4,0,0,0,439.391,154.333ZM399.58,126.294l.939-4.536a.53.53,0,0,1,.412-.412l4.535-.939a.4.4,0,0,0,.257-.6l-1.324-2.125a.8.8,0,0,0-.8-.365l-5.57.878a.8.8,0,0,0-.661.662l-.878,5.57a.8.8,0,0,0,.365.8l2.125,1.324A.4.4,0,0,0,399.58,126.294ZM443.734,142.5l1.454,4.4a.53.53,0,0,1-.151.562l-3.458,3.081a.4.4,0,0,0,.077.648l2.209,1.178a.8.8,0,0,0,.874-.083l4.385-3.546a.8.8,0,0,0,.242-.9l-2.025-5.263a.8.8,0,0,0-.715-.509l-2.5-.084A.4.4,0,0,0,443.734,142.5Zm-48.5-4.377-1.455-4.4a.53.53,0,0,1,.151-.562l3.459-3.081a.4.4,0,0,0-.077-.648l-2.209-1.178a.8.8,0,0,0-.874.083l-4.385,3.546a.8.8,0,0,0-.242.9l2.025,5.263a.8.8,0,0,0,.716.509l2.5.084A.4.4,0,0,0,395.237,138.125Zm46.342-8.041,3.458,3.081a.53.53,0,0,1,.151.562l-1.454,4.4a.4.4,0,0,0,.391.522l2.5-.084a.8.8,0,0,0,.715-.509l2.025-5.263a.8.8,0,0,0-.242-.9l-4.385-3.546a.8.8,0,0,0-.874-.083l-2.209,1.178A.4.4,0,0,0,441.579,130.085Zm-44.188,20.458-3.459-3.081a.53.53,0,0,1-.151-.562l1.455-4.4a.4.4,0,0,0-.391-.522l-2.5.084a.8.8,0,0,0-.716.509l-2.025,5.263a.8.8,0,0,0,.242.9l4.385,3.546a.8.8,0,0,0,.874.083l2.209-1.178A.4.4,0,0,0,397.392,150.543ZM433.5,120.408l4.536.939a.53.53,0,0,1,.411.412l.939,4.536a.4.4,0,0,0,.6.257l2.125-1.324a.8.8,0,0,0,.365-.8l-.878-5.57a.8.8,0,0,0-.662-.662l-5.57-.878a.8.8,0,0,0-.8.365l-1.324,2.125A.4.4,0,0,0,433.5,120.408Zm-28.039,39.811-4.535-.939a.53.53,0,0,1-.412-.412l-.939-4.536a.4.4,0,0,0-.6-.257l-2.125,1.324a.8.8,0,0,0-.365.8l.878,5.57a.8.8,0,0,0,.661.662l5.57.878a.8.8,0,0,0,.8-.365l1.324-2.125A.4.4,0,0,0,405.466,160.219Zm16.208-44.154,4.4-1.455a.53.53,0,0,1,.562.151l3.081,3.458a.4.4,0,0,0,.648-.077l1.178-2.209a.8.8,0,0,0-.083-.874l-3.546-4.385a.8.8,0,0,0-.9-.242l-5.263,2.025a.8.8,0,0,0-.509.715l-.084,2.5A.4.4,0,0,0,421.674,116.065Zm-4.377,48.5-4.4,1.455a.53.53,0,0,1-.562-.151l-3.081-3.458a.4.4,0,0,0-.648.077l-1.178,2.209a.8.8,0,0,0,.083.874l3.546,4.385a.8.8,0,0,0,.9.242l5.263-2.025a.8.8,0,0,0,.509-.715l.084-2.5A.4.4,0,0,0,417.3,164.562ZM454.705,145h2.4V133.406h-2.4Zm3.51-6.347v1.991h5.972v-1.991ZM465.461,145h10.86v-1.811h-8.465v-9.781h-2.4Zm20.156.225a8.638,8.638,0,0,0,5.139-1.407,4.4,4.4,0,0,0,0-7.339,10.058,10.058,0,0,0-10.288,0,4.419,4.419,0,0,0,0,7.339A8.654,8.654,0,0,0,485.617,145.224Zm0-8.443a5.808,5.808,0,0,1,3.441.941,2.9,2.9,0,0,1,0,4.859,6.913,6.913,0,0,1-6.882,0,2.914,2.914,0,0,1,0-4.859A5.808,5.808,0,0,1,485.617,136.781Zm17.179,2.581-.8,1.718h4.174v1.959a11.2,11.2,0,0,1-3.021.4,6.447,6.447,0,0,1-3.656-.9,2.83,2.83,0,0,1-1.359-2.442,2.763,2.763,0,0,1,1.354-2.418,6.6,6.6,0,0,1,3.678-.894,11.064,11.064,0,0,1,4.362.879l.823-1.734a17.436,17.436,0,0,0-5.274-.863,9.374,9.374,0,0,0-5.381,1.337,4.268,4.268,0,0,0-1.922,3.693,4.324,4.324,0,0,0,1.94,3.74,9.15,9.15,0,0,0,5.345,1.376,15.7,15.7,0,0,0,5.363-.941v-4.906ZM512.826,145h2.306v-9.711h-2.306Zm11.969-9.936a8.669,8.669,0,0,0-4.058.766,2.393,2.393,0,0,0-1.412,2.2,2.264,2.264,0,0,0,.956,1.9,5.574,5.574,0,0,0,2.771.914l3.209.334q2.029.186,2.029,1.1,0,1.221-3.021,1.221a14.658,14.658,0,0,1-5.4-1.081l-.823,1.734a17.271,17.271,0,0,0,6.132,1.073q5.4,0,5.4-3.024,0-2.542-3.772-2.931l-3.271-.334q-1.922-.187-1.922-1.05,0-1.135,3.057-1.135a12.871,12.871,0,0,1,4.648.879l.769-1.656A16.79,16.79,0,0,0,524.794,135.063Zm7.893,1.99h4.558V145h2.306v-7.946h4.532v-1.765h-11.4Zm14.4,7.946h2.306v-9.711h-2.306Zm13.291-9.936a8.685,8.685,0,0,0-5.149,1.384,4.25,4.25,0,0,0-1.922,3.631,4.355,4.355,0,0,0,2.011,3.724,8.956,8.956,0,0,0,5.256,1.423,10.867,10.867,0,0,0,4.487-.863v-1.99a8.629,8.629,0,0,1-4.415,1.1,6.361,6.361,0,0,1-3.6-.933,2.9,2.9,0,0,1-1.376-2.5,2.746,2.746,0,0,1,1.26-2.356,5.97,5.97,0,0,1,3.45-.894,8.981,8.981,0,0,1,3.951.879l.84-1.749A14.711,14.711,0,0,0,560.378,135.063Zm13.39,0a8.669,8.669,0,0,0-4.058.766,2.393,2.393,0,0,0-1.412,2.2,2.264,2.264,0,0,0,.956,1.9,5.574,5.574,0,0,0,2.771.914l3.209.334q2.029.186,2.029,1.1,0,1.221-3.021,1.221a14.658,14.658,0,0,1-5.4-1.081l-.823,1.734a17.271,17.271,0,0,0,6.132,1.073q5.4,0,5.4-3.024,0-2.542-3.772-2.931l-3.271-.334q-1.922-.187-1.922-1.05,0-1.135,3.057-1.135a12.87,12.87,0,0,1,4.648.879l.769-1.656A16.79,16.79,0,0,0,573.768,135.063Z" transform="translate(-389.551 -110.379)" fill="#034575"/></svg>