<svg xmlns="http://www.w3.org/2000/svg" width="250" height="78.775" viewBox="0 0 250 78.775"><path d="M433.5,173.588l.443,4.1a.343.343,0,0,1-.539.318l-4.07-2.854a.687.687,0,0,0-.788,0L424.474,178a.343.343,0,0,1-.538-.318l.443-4.1a1.374,1.374,0,0,1,.489-.909l3.194-2.65a1.374,1.374,0,0,1,1.754,0l3.194,2.65A1.374,1.374,0,0,1,433.5,173.588Zm-8.631-46.732,3.194,2.65a1.374,1.374,0,0,0,1.754,0l3.194-2.65a1.373,1.373,0,0,0,.489-.909l.443-4.1a.343.343,0,0,0-.539-.318l-4.07,2.854a.687.687,0,0,1-.788,0l-4.07-2.854a.343.343,0,0,0-.538.318l.443,4.1A1.376,1.376,0,0,0,424.867,126.855Zm19.053,40.718-4.091-.7a1.373,1.373,0,0,0-1.519.877l-1.441,3.892a1.374,1.374,0,0,0,.032,1.032l1.666,3.772a.343.343,0,0,0,.625.006l2.1-4.507a.687.687,0,0,1,.683-.394l4.952.436a.343.343,0,0,0,.307-.545l-2.433-3.329A1.373,1.373,0,0,0,443.92,167.573ZM413.957,131.96l4.091.7a1.373,1.373,0,0,0,1.519-.877l1.441-3.892a1.371,1.371,0,0,0-.032-1.032l-1.666-3.772a.343.343,0,0,0-.625-.006l-2.1,4.507a.686.686,0,0,1-.682.394l-4.952-.436a.343.343,0,0,0-.307.545l2.433,3.329A1.373,1.373,0,0,0,413.957,131.96ZM450.816,157.7l-3.892,1.442a1.373,1.373,0,0,0-.876,1.519l.7,4.091a1.374,1.374,0,0,0,.543.878l3.329,2.433a.343.343,0,0,0,.544-.307l-.436-4.952a.687.687,0,0,1,.394-.683l4.506-2.1a.343.343,0,0,0-.006-.626l-3.771-1.666A1.375,1.375,0,0,0,450.816,157.7Zm-43.755-15.86,3.892-1.442a1.373,1.373,0,0,0,.877-1.519l-.7-4.091a1.373,1.373,0,0,0-.544-.878l-3.328-2.434a.343.343,0,0,0-.545.307l.436,4.952a.687.687,0,0,1-.394.683l-4.506,2.1a.343.343,0,0,0,.006.626l3.772,1.666A1.374,1.374,0,0,0,407.061,141.837ZM451.85,145.7l-2.65,3.194a1.373,1.373,0,0,0,0,1.753l2.65,3.194a1.373,1.373,0,0,0,.909.489l4.1.443a.343.343,0,0,0,.318-.538l-2.854-4.07a.686.686,0,0,1,0-.789l2.854-4.07a.343.343,0,0,0-.318-.538l-4.1.443A1.373,1.373,0,0,0,451.85,145.7Zm-45.823,8.142,2.65-3.194a1.373,1.373,0,0,0,0-1.753l-2.65-3.194a1.372,1.372,0,0,0-.909-.489l-4.1-.443a.343.343,0,0,0-.318.538l2.854,4.07a.688.688,0,0,1,0,.789l-2.854,4.07a.343.343,0,0,0,.318.538l4.1-.443A1.373,1.373,0,0,0,406.027,153.838Zm40.718-19.053-.7,4.091a1.373,1.373,0,0,0,.876,1.519l3.892,1.442a1.375,1.375,0,0,0,1.032-.032l3.771-1.666a.343.343,0,0,0,.006-.626l-4.506-2.1a.687.687,0,0,1-.394-.683l.436-4.952a.343.343,0,0,0-.544-.307l-3.329,2.434A1.372,1.372,0,0,0,446.745,134.785Zm-35.613,29.963.7-4.091a1.373,1.373,0,0,0-.877-1.519l-3.892-1.442a1.374,1.374,0,0,0-1.032.032l-3.772,1.666a.343.343,0,0,0-.006.626l4.506,2.1a.687.687,0,0,1,.394.683l-.436,4.952a.343.343,0,0,0,.545.307l3.328-2.433A1.374,1.374,0,0,0,411.132,164.748Zm25.736-36.859,1.441,3.892a1.373,1.373,0,0,0,1.519.877l4.091-.7a1.373,1.373,0,0,0,.878-.543l2.433-3.329a.343.343,0,0,0-.307-.545l-4.952.436a.686.686,0,0,1-.683-.394l-2.1-4.507a.343.343,0,0,0-.625.006l-1.666,3.772A1.374,1.374,0,0,0,436.869,127.889Zm-15.86,43.755-1.441-3.892a1.373,1.373,0,0,0-1.519-.877l-4.091.7a1.373,1.373,0,0,0-.878.543l-2.433,3.329a.343.343,0,0,0,.307.545l4.952-.436a.686.686,0,0,1,.682.395l2.1,4.507a.343.343,0,0,0,.625-.006l1.666-3.772A1.371,1.371,0,0,0,421.008,171.644Zm21.39,7.193-4.054,4.55a.7.7,0,0,1-.74.2l-5.786-1.914a.523.523,0,0,0-.687.514l.111,3.292a1.046,1.046,0,0,0,.67.941l6.925,2.664a1.047,1.047,0,0,0,1.189-.319l4.665-5.77a1.045,1.045,0,0,0,.109-1.15l-1.55-2.907A.523.523,0,0,0,442.4,178.838ZM415.479,120.7l4.054-4.55a.7.7,0,0,1,.74-.2l5.786,1.914a.523.523,0,0,0,.687-.514l-.11-3.292a1.046,1.046,0,0,0-.67-.941l-6.925-2.664a1.047,1.047,0,0,0-1.189.319l-4.665,5.77a1.046,1.046,0,0,0-.11,1.15l1.55,2.907A.523.523,0,0,0,415.479,120.7Zm39.651,47.517-1.236,5.968a.7.7,0,0,1-.541.542l-5.968,1.235a.523.523,0,0,0-.338.789l1.742,2.8a1.046,1.046,0,0,0,1.051.48l7.329-1.156a1.046,1.046,0,0,0,.871-.871l1.156-7.329a1.047,1.047,0,0,0-.48-1.051l-2.8-1.742A.523.523,0,0,0,455.13,168.213ZM402.747,131.32l1.236-5.968a.7.7,0,0,1,.542-.542l5.968-1.235a.523.523,0,0,0,.338-.789l-1.742-2.8a1.046,1.046,0,0,0-1.051-.48l-7.329,1.156a1.046,1.046,0,0,0-.87.871l-1.156,7.329a1.046,1.046,0,0,0,.48,1.051l2.8,1.742A.523.523,0,0,0,402.747,131.32Zm58.1,21.326,1.914,5.786a.7.7,0,0,1-.2.74l-4.55,4.054a.523.523,0,0,0,.1.852l2.906,1.551a1.047,1.047,0,0,0,1.15-.11l5.77-4.665a1.046,1.046,0,0,0,.319-1.189l-2.664-6.925a1.046,1.046,0,0,0-.941-.67l-3.292-.11A.523.523,0,0,0,460.844,152.646Zm-63.812-5.759-1.914-5.786a.7.7,0,0,1,.2-.74l4.551-4.054a.523.523,0,0,0-.1-.852l-2.906-1.55a1.047,1.047,0,0,0-1.15.11l-5.77,4.665a1.047,1.047,0,0,0-.319,1.189l2.664,6.925a1.047,1.047,0,0,0,.942.67l3.292.11A.523.523,0,0,0,397.033,146.887Zm60.977-10.58,4.55,4.054a.7.7,0,0,1,.2.74l-1.914,5.786a.523.523,0,0,0,.514.687l3.292-.11a1.046,1.046,0,0,0,.941-.67l2.664-6.925a1.046,1.046,0,0,0-.319-1.189l-5.77-4.665a1.047,1.047,0,0,0-1.15-.11l-2.906,1.55A.523.523,0,0,0,458.01,136.307Zm-58.142,26.919-4.551-4.054a.7.7,0,0,1-.2-.74l1.914-5.786a.523.523,0,0,0-.514-.687l-3.292.11a1.047,1.047,0,0,0-.942.67l-2.664,6.925a1.047,1.047,0,0,0,.319,1.189l5.77,4.665a1.047,1.047,0,0,0,1.15.11l2.906-1.551A.523.523,0,0,0,399.868,163.226Zm47.517-39.651,5.968,1.235a.7.7,0,0,1,.541.542l1.236,5.968a.523.523,0,0,0,.789.338l2.8-1.742a1.047,1.047,0,0,0,.48-1.051l-1.156-7.329a1.046,1.046,0,0,0-.871-.871l-7.329-1.156a1.046,1.046,0,0,0-1.051.48l-1.742,2.8A.523.523,0,0,0,447.385,123.575Zm-36.893,52.383-5.968-1.235a.7.7,0,0,1-.542-.542l-1.236-5.968a.523.523,0,0,0-.789-.338l-2.8,1.742a1.046,1.046,0,0,0-.48,1.051L399.837,178a1.046,1.046,0,0,0,.87.871l7.329,1.156a1.046,1.046,0,0,0,1.051-.48l1.742-2.8A.523.523,0,0,0,410.492,175.958Zm21.326-58.1,5.786-1.914a.7.7,0,0,1,.74.2l4.054,4.55a.523.523,0,0,0,.852-.1l1.55-2.907a1.045,1.045,0,0,0-.109-1.15l-4.665-5.77a1.047,1.047,0,0,0-1.189-.319l-6.925,2.664a1.046,1.046,0,0,0-.67.941l-.111,3.292A.523.523,0,0,0,431.818,117.861Zm-5.759,63.812-5.786,1.914a.7.7,0,0,1-.74-.2l-4.054-4.55a.523.523,0,0,0-.852.1l-1.55,2.907a1.046,1.046,0,0,0,.11,1.15l4.665,5.77a1.047,1.047,0,0,0,1.189.319l6.925-2.664a1.046,1.046,0,0,0,.67-.941l.11-3.292A.523.523,0,0,0,426.059,181.673Zm49.221-25.741h3.152V140.678H475.28Zm4.618-8.352v2.62h7.858v-2.62Zm9.535,8.352h14.29v-2.383H492.585v-12.87h-3.152Zm26.521.3a11.365,11.365,0,0,0,6.762-1.852,5.784,5.784,0,0,0,0-9.657,13.234,13.234,0,0,0-13.537,0,5.814,5.814,0,0,0,0,9.657A11.386,11.386,0,0,0,515.954,156.228Zm0-11.11a7.642,7.642,0,0,1,4.528,1.238,3.82,3.82,0,0,1,0,6.394,9.1,9.1,0,0,1-9.056,0,3.834,3.834,0,0,1,0-6.394A7.642,7.642,0,0,1,515.954,145.118Zm22.6,3.4-1.058,2.261h5.493v2.578a14.733,14.733,0,0,1-3.975.522,8.483,8.483,0,0,1-4.81-1.187,3.724,3.724,0,0,1-1.788-3.212,3.636,3.636,0,0,1,1.782-3.181,8.689,8.689,0,0,1,4.84-1.177,14.558,14.558,0,0,1,5.739,1.156l1.082-2.281a22.942,22.942,0,0,0-6.939-1.136,12.334,12.334,0,0,0-7.08,1.76,5.615,5.615,0,0,0-2.529,4.859,5.689,5.689,0,0,0,2.552,4.921,12.039,12.039,0,0,0,7.033,1.811,20.657,20.657,0,0,0,7.057-1.238v-6.455Zm13.2,7.417h3.034V143.154h-3.034ZM567.5,142.857a11.407,11.407,0,0,0-5.339,1.008,3.149,3.149,0,0,0-1.858,2.89,2.979,2.979,0,0,0,1.258,2.5,7.334,7.334,0,0,0,3.646,1.2l4.222.44q2.67.245,2.67,1.453,0,1.606-3.975,1.606a19.286,19.286,0,0,1-7.1-1.422l-1.082,2.281a22.725,22.725,0,0,0,8.068,1.412q7.1,0,7.1-3.979,0-3.345-4.963-3.857l-4.3-.44q-2.529-.246-2.529-1.381,0-1.493,4.022-1.493a16.936,16.936,0,0,1,6.116,1.156l1.011-2.179A22.091,22.091,0,0,0,567.5,142.857Zm10.385,2.619h6v10.455h3.034V145.476h5.963v-2.322h-15Zm18.947,10.455h3.034V143.154h-3.034Zm17.489-13.074a11.427,11.427,0,0,0-6.774,1.821,5.592,5.592,0,0,0-2.529,4.777,5.73,5.73,0,0,0,2.646,4.9,11.784,11.784,0,0,0,6.915,1.872,14.3,14.3,0,0,0,5.9-1.135v-2.619a11.354,11.354,0,0,1-5.81,1.442,8.369,8.369,0,0,1-4.74-1.227,3.813,3.813,0,0,1-1.811-3.294,3.613,3.613,0,0,1,1.658-3.1,7.855,7.855,0,0,1,4.54-1.177,11.818,11.818,0,0,1,5.2,1.156l1.106-2.3A19.356,19.356,0,0,0,614.324,142.857Zm17.618,0a11.406,11.406,0,0,0-5.339,1.008,3.149,3.149,0,0,0-1.858,2.89,2.979,2.979,0,0,0,1.258,2.5,7.334,7.334,0,0,0,3.646,1.2l4.222.44q2.67.245,2.67,1.453,0,1.606-3.975,1.606a19.286,19.286,0,0,1-7.1-1.422l-1.082,2.281a22.725,22.725,0,0,0,8.068,1.412q7.1,0,7.1-3.979,0-3.345-4.963-3.857l-4.3-.44q-2.529-.246-2.529-1.381,0-1.493,4.022-1.493a16.934,16.934,0,0,1,6.116,1.156l1.012-2.179A22.092,22.092,0,0,0,631.941,142.857Z" transform="translate(-389.551 -110.379)" fill="#fff"/></svg>