<?xml version="1.0" standalone="no"?>
<!DOCTYPE svg PUBLIC "-//W3C//DTD SVG 20010904//EN"
 "http://www.w3.org/TR/2001/REC-SVG-20010904/DTD/svg10.dtd">
<svg version="1.0" xmlns="http://www.w3.org/2000/svg"
 width="700.000000pt" height="700.000000pt" viewBox="0 0 700.000000 700.000000"
 preserveAspectRatio="xMidYMid meet">
<metadata>
Created by potrace 1.14, written by Peter Selinger 2001-2017
</metadata>
<g transform="translate(0.000000,700.000000) scale(0.100000,-0.100000)"
fill="#000000" stroke="none">
<path d="M2543 6988 c-12 -7 -41 -38 -64 -68 -24 -30 -46 -57 -49 -60 -3 -3
-32 -39 -65 -80 -33 -41 -68 -84 -77 -95 -124 -148 -208 -263 -208 -285 0 -25
30 -88 116 -247 65 -119 64 -119 210 43 39 44 108 122 154 174 88 100 129 140
144 140 5 0 132 -41 283 -90 284 -93 311 -98 314 -52 2 27 -2 212 -6 274 -3
54 -24 101 -48 111 -284 111 -629 240 -652 243 -16 2 -40 -1 -52 -8z"/>
<path d="M4360 6988 c-14 -6 -34 -14 -45 -19 -11 -5 -130 -51 -265 -103 -319
-122 -316 -121 -330 -146 -13 -24 -18 -85 -21 -240 -2 -132 -3 -127 20 -140
16 -8 77 9 296 81 151 49 284 88 293 84 10 -3 104 -102 208 -220 168 -191 192
-214 217 -212 31 2 25 -6 136 201 43 81 52 105 48 132 -4 24 -43 79 -130 187
-68 83 -165 204 -216 267 -51 63 -102 120 -114 127 -27 15 -63 15 -97 1z"/>
<path d="M1480 6164 c-69 -12 -143 -25 -165 -27 -22 -3 -83 -13 -135 -21 -52
-8 -111 -17 -130 -20 -125 -20 -129 -25 -165 -271 -3 -22 -8 -51 -10 -65 -2
-14 -9 -56 -15 -95 -15 -96 -19 -121 -30 -185 -23 -130 -23 -163 2 -191 23
-26 250 -172 285 -183 25 -8 52 13 58 44 2 14 11 57 19 95 9 39 18 81 20 95
27 149 67 325 78 347 12 24 35 30 273 79 118 24 135 28 185 38 14 3 49 11 78
17 89 18 89 33 -4 185 -106 173 -110 178 -170 179 -27 0 -105 -9 -174 -21z"/>
<path d="M5302 6180 c-12 -5 -44 -44 -70 -85 -26 -42 -66 -107 -89 -143 -24
-37 -43 -72 -43 -78 0 -33 30 -45 200 -80 96 -20 182 -37 190 -39 8 -2 53 -11
100 -20 47 -9 94 -23 104 -31 14 -10 26 -46 43 -126 13 -62 28 -135 34 -163 6
-27 12 -61 15 -75 36 -191 53 -240 88 -240 20 0 288 174 303 196 17 26 15 65
-11 214 -8 47 -18 103 -20 125 -3 22 -7 49 -10 60 -4 21 -20 123 -21 140 -4
36 -28 165 -36 191 -13 43 -52 59 -184 80 -60 9 -119 18 -130 20 -11 1 -38 5
-60 8 -22 4 -51 8 -65 11 -14 2 -43 7 -65 10 -22 3 -69 10 -105 16 -106 17
-144 19 -168 9z"/>
<path d="M3719 5884 c-106 -74 -196 -135 -201 -135 -37 -6 -41 -3 -311 189
-102 72 -146 88 -148 55 -2 -24 -2 -20 6 -88 4 -33 8 -80 10 -105 7 -95 25
-211 34 -229 6 -10 34 -38 63 -62 29 -24 55 -46 58 -49 3 -3 39 -33 80 -67 41
-33 84 -70 96 -81 28 -27 83 -42 121 -34 33 7 332 246 359 287 8 12 16 42 19
66 3 24 8 58 10 74 3 17 7 64 11 105 3 41 10 97 14 125 8 54 5 71 -15 79 -7 2
-100 -56 -206 -130z"/>
<path d="M2536 5758 c-34 -73 -77 -167 -96 -208 -36 -82 -69 -121 -98 -115
-10 2 -56 6 -103 10 -46 3 -100 8 -119 10 -20 2 -74 7 -120 11 -47 3 -87 8
-89 10 -7 7 -41 -17 -41 -30 0 -7 52 -85 115 -172 121 -166 145 -189 220 -198
22 -3 92 -15 155 -26 189 -35 219 -36 260 -8 31 21 42 43 107 213 39 105 72
206 72 226 1 34 -7 58 -64 184 -12 28 -37 84 -55 125 -18 41 -37 81 -42 88
-24 29 -41 8 -102 -120z"/>
<path d="M4362 5878 c-5 -7 -24 -47 -42 -88 -44 -101 -78 -176 -102 -228 -28
-59 -22 -99 41 -267 86 -230 85 -228 122 -253 41 -28 64 -27 294 13 171 29
219 45 237 79 6 11 18 27 25 35 8 7 22 26 31 40 9 14 49 70 89 124 40 54 73
104 73 111 0 18 -22 34 -42 31 -9 -2 -54 -6 -100 -10 -46 -3 -94 -8 -108 -10
-37 -5 -212 -18 -234 -17 -11 1 -25 7 -32 14 -8 7 -55 103 -107 213 -106 229
-104 225 -121 225 -8 0 -18 -6 -24 -12z"/>
<path d="M1533 5118 c-6 -7 -9 -20 -8 -29 2 -9 6 -59 10 -110 3 -52 8 -101 10
-109 5 -20 18 -189 16 -218 -2 -42 17 -32 -353 -205 -95 -45 -113 -62 -85 -85
17 -14 350 -160 373 -163 11 -2 33 0 49 5 59 15 361 130 386 147 52 36 58 95
25 254 -2 11 -11 67 -21 125 -21 128 -28 147 -62 174 -85 68 -307 226 -318
226 -7 0 -17 -6 -22 -12z"/>
<path d="M5390 5101 c-34 -27 -109 -83 -224 -166 -59 -43 -81 -76 -90 -140 -4
-22 -13 -76 -21 -120 -41 -226 -42 -252 -13 -295 21 -31 42 -42 203 -103 223
-84 249 -90 301 -66 21 10 102 46 179 79 128 57 165 79 165 102 0 8 -76 46
-303 152 -42 20 -81 36 -85 36 -4 0 -20 10 -36 23 -35 28 -35 50 -11 272 2 22
7 76 11 120 3 44 7 82 9 85 1 3 -1 15 -6 28 -11 29 -36 27 -79 -7z"/>
<path d="M549 4897 c-31 -21 -155 -119 -219 -174 -14 -11 -65 -53 -115 -93
-50 -39 -110 -88 -134 -108 -24 -20 -51 -42 -59 -48 -34 -25 -21 -79 80 -342
55 -141 108 -280 118 -309 43 -121 36 -118 303 -125 106 -2 120 -1 132 16 18
23 20 15 -79 314 -47 141 -86 263 -86 271 0 14 28 42 140 141 41 36 81 72 90
80 9 8 54 49 100 90 105 93 110 99 107 129 -1 18 -15 31 -52 50 -27 15 -94 50
-147 79 -53 28 -108 52 -121 52 -13 0 -39 -10 -58 -23z"/>
<path d="M6285 4875 c-44 -25 -108 -59 -142 -76 -97 -49 -96 -74 5 -162 37
-31 83 -72 103 -90 19 -17 71 -63 115 -102 111 -98 144 -132 144 -147 0 -8
-41 -136 -90 -286 -71 -216 -88 -277 -80 -293 12 -22 10 -22 165 -19 217 3
232 8 263 92 11 29 68 176 126 327 58 151 106 283 106 295 -1 35 -21 61 -95
120 -38 31 -77 62 -85 69 -8 7 -97 79 -198 161 -221 178 -218 178 -337 111z"/>
<path d="M997 3929 c-16 -23 -21 -15 192 -314 61 -86 73 -114 58 -141 -5 -10
-67 -100 -136 -199 -69 -99 -124 -187 -122 -195 4 -20 22 -30 46 -25 26 6 100
14 172 20 101 9 204 25 223 35 18 10 240 271 273 320 30 47 31 92 1 136 -44
64 -254 314 -274 324 -10 5 -33 12 -52 14 -51 7 -153 19 -278 31 -41 4 -78 9
-82 11 -4 2 -13 -5 -21 -17z"/>
<path d="M5989 3946 c-2 -2 -38 -7 -79 -10 -41 -4 -88 -9 -105 -11 -16 -2 -61
-6 -100 -10 -142 -14 -128 -4 -296 -205 -177 -213 -176 -208 -26 -388 39 -48
74 -89 77 -92 3 -3 26 -31 53 -62 53 -63 76 -73 182 -83 39 -3 81 -8 95 -10
34 -4 159 -18 188 -19 13 -1 28 6 32 15 7 13 -23 62 -129 215 -123 176 -138
201 -131 225 5 15 67 111 139 214 110 157 129 190 121 206 -11 20 -14 22 -21
15z"/>
<path d="M548 3304 c-2 -1 -52 -3 -113 -5 -123 -3 -160 -11 -180 -43 -7 -11
-68 -164 -135 -340 -116 -301 -122 -320 -111 -355 9 -30 38 -58 167 -161 87
-69 162 -130 168 -135 36 -33 205 -164 223 -174 35 -18 61 -13 126 23 34 18
98 52 142 76 44 24 83 48 88 54 19 29 -8 61 -198 230 -110 98 -208 188 -218
199 -23 26 -26 12 79 330 68 206 82 261 74 277 -6 11 -14 20 -18 21 -21 3 -92
6 -94 3z"/>
<path d="M6363 3299 c-11 -4 -23 -14 -26 -23 -4 -9 34 -139 83 -288 50 -150
90 -279 90 -286 0 -15 -33 -48 -144 -147 -44 -38 -89 -79 -102 -90 -12 -11
-52 -47 -90 -80 -137 -121 -137 -125 -16 -191 191 -105 216 -115 250 -110 22
3 79 43 185 129 83 68 188 152 232 188 44 35 91 74 105 86 14 13 28 23 32 23
11 0 38 56 38 77 0 16 -230 626 -251 665 -18 33 -61 44 -174 47 -60 1 -129 4
-151 5 -23 1 -51 -1 -61 -5z"/>
<path d="M1390 2760 c-47 -21 -114 -52 -150 -67 -167 -72 -167 -77 -23 -145
318 -149 333 -157 342 -180 5 -13 7 -25 6 -28 -2 -3 -6 -48 -10 -100 -4 -52
-9 -108 -11 -125 -2 -16 -6 -70 -10 -120 -3 -49 -8 -92 -10 -94 -7 -7 18 -31
32 -31 17 0 323 224 341 250 12 17 29 88 47 200 3 19 10 62 16 95 24 136 24
167 -2 204 -25 37 -29 39 -253 122 -183 68 -207 69 -315 19z"/>
<path d="M5438 2795 c-2 -3 -85 -34 -184 -70 -185 -68 -217 -87 -231 -143 -8
-35 54 -407 75 -449 18 -33 321 -263 348 -263 13 0 37 33 30 41 -2 2 -7 45
-10 94 -4 50 -9 106 -11 125 -17 151 -20 234 -9 252 6 10 167 89 320 157 178
80 181 74 -124 207 -111 49 -186 67 -204 49z"/>
<path d="M2335 1946 c-99 -18 -191 -38 -205 -45 -23 -11 -241 -297 -256 -335
-8 -21 12 -46 34 -41 10 1 62 6 117 10 55 3 107 8 115 10 8 2 53 7 100 10 47
4 87 8 88 10 2 2 17 -1 34 -7 31 -11 60 -64 177 -324 77 -172 79 -172 181 66
18 41 43 98 56 125 13 28 24 64 25 80 2 28 -102 330 -139 404 -21 43 -67 71
-112 70 -19 -1 -116 -16 -215 -33z"/>
<path d="M4379 1957 c-30 -20 -41 -43 -106 -217 -40 -107 -73 -209 -73 -227 0
-29 138 -361 162 -390 23 -28 40 -10 90 95 170 360 166 354 213 346 18 -3 68
-7 210 -19 28 -3 84 -7 125 -11 123 -11 143 -5 123 38 -18 39 -223 311 -245
327 -20 14 -382 81 -439 81 -14 0 -41 -10 -60 -23z"/>
<path d="M1099 1886 c-79 -41 -263 -163 -276 -183 -17 -25 -15 -52 17 -243 10
-63 21 -132 24 -152 3 -21 9 -55 12 -75 3 -21 14 -89 24 -151 19 -122 38 -158
91 -167 13 -2 51 -8 84 -14 53 -9 122 -20 165 -26 8 -1 35 -5 60 -9 25 -4 52
-8 60 -10 8 -1 80 -13 160 -26 179 -29 184 -27 252 80 84 133 128 208 128 217
0 34 -100 66 -341 108 -122 22 -269 60 -269 70 0 2 -7 30 -15 62 -8 32 -17 74
-20 93 -3 19 -15 76 -25 125 -11 50 -21 101 -24 115 -20 111 -39 177 -53 188
-21 15 -22 15 -54 -2z"/>
<path d="M5853 1890 c-13 -5 -23 -11 -23 -12 0 -2 -7 -37 -16 -78 -9 -41 -18
-85 -20 -97 -8 -47 -17 -88 -39 -193 -2 -14 -12 -62 -22 -106 -9 -45 -22 -89
-29 -99 -11 -15 -42 -25 -119 -41 -19 -3 -29 -6 -95 -20 -14 -3 -36 -7 -50
-10 -14 -2 -56 -11 -95 -20 -74 -15 -91 -19 -170 -34 -84 -17 -89 -41 -30
-135 24 -38 62 -100 85 -138 53 -87 75 -101 143 -93 28 3 63 8 77 10 14 3 98
17 188 30 221 35 218 34 292 47 94 16 123 26 138 50 14 22 16 30 26 90 10 63
35 224 39 254 3 17 8 46 11 65 10 58 15 90 32 205 16 104 16 113 0 137 -13 20
-283 200 -297 197 -2 0 -14 -4 -26 -9z"/>
<path d="M3464 1721 c-20 -5 -68 -38 -98 -66 -6 -6 -66 -57 -133 -113 -67 -56
-124 -111 -128 -122 -10 -30 -19 -102 -31 -225 -3 -38 -9 -90 -13 -115 -8 -57
-4 -87 14 -94 11 -4 235 140 255 164 3 3 40 29 83 57 68 45 82 51 104 42 15
-5 108 -67 207 -137 100 -70 189 -126 198 -124 22 4 25 24 17 92 -9 71 -17
139 -24 220 -14 138 -4 125 -238 319 -132 109 -150 118 -213 102z"/>
<path d="M2202 858 c-127 -233 -133 -248 -111 -291 10 -18 189 -246 224 -283
5 -6 55 -68 110 -137 103 -130 134 -154 182 -142 16 3 169 61 341 128 242 93
318 126 330 145 16 24 19 52 22 237 3 137 4 132 -20 145 -16 8 -73 -7 -294
-80 -290 -96 -305 -98 -337 -52 -14 19 -126 146 -182 207 -16 16 -52 57 -80
89 -118 136 -128 138 -185 34z"/>
<path d="M4705 922 c-6 -4 -64 -68 -130 -142 -66 -74 -136 -153 -157 -175 -20
-22 -46 -53 -58 -68 -44 -56 -48 -55 -348 43 -335 110 -320 112 -316 -32 9
-263 14 -284 76 -307 18 -7 42 -17 53 -22 73 -31 548 -210 573 -215 17 -3 40
0 55 8 20 10 166 185 445 534 34 43 25 80 -58 234 -74 137 -83 150 -110 150
-8 0 -20 -4 -25 -8z"/>
</g>
</svg>
